<?xml version="1.0" encoding="UTF-8"?>
<svg width="436px" height="217px" viewBox="0 0 436 217" version="1.1" xmlns="http://www.w3.org/2000/svg" xmlns:xlink="http://www.w3.org/1999/xlink">
    <title>gegm_logo_web</title>
    <g id="Screendesign" stroke="none" stroke-width="1" fill="none" fill-rule="evenodd">
        <g id="gegm_logo_web">
            <rect id="Rectangle" x="0" y="0" width="436" height="217" rx="108.5"></rect>
            <g id="Group-39" transform="translate(40.000000, 42.000000)" fill="#FFFFFE">
                <path d="M192.903613,14.2240752 L187.347294,14.2240752 C186.889644,11.7520003 185.237603,10.4098704 182.460194,10.4098704 C178.450881,10.4098704 175.919552,13.658952 175.919552,19.0621324 C175.919552,24.5712546 178.380358,27.9261272 182.353659,27.9261272 C185.941333,27.9261272 187.909978,25.8425557 187.980501,21.9579743 L182.037055,21.9579743 L182.037055,17.7201532 L192.797078,17.7201532 L192.797078,31.5282978 L188.43665,31.5282978 L188.43665,28.808925 L188.367628,28.808925 C186.960167,30.7867055 184.392826,32.0227429 181.052733,32.0227429 C174.653137,32.0227429 170.574802,27.1140076 170.574802,19.0621324 C170.574802,10.8337882 175.145298,5.8189604 182.460194,5.8189604 C188.613708,5.8189604 192.37544,9.06804196 192.903613,14.2240752" id="Fill-3"></path>
                <path d="M200.917737,20.4747897 L208.724794,20.4747897 C208.40819,17.7554169 206.79066,16.5195302 204.820515,16.5195302 C202.817359,16.5195302 201.304864,17.7554169 200.917737,20.4747897 Z M208.372178,26.0898536 L213.400324,26.0898536 C212.698095,29.3740482 209.602581,32.093421 204.856527,32.093421 C199.229684,32.093421 195.960114,28.1381615 195.960114,22.4171558 C195.960114,17.1197664 199.229684,13.0233014 204.820515,13.0233014 C208.934862,13.0233014 211.959853,15.3540202 213.083721,18.9914544 C213.470848,20.2274918 213.646405,21.6048854 213.646405,23.5823644 L200.812703,23.5823644 C200.953749,27.2904767 202.746836,28.5971922 204.856527,28.5971922 C206.825172,28.5971922 208.126097,27.5377746 208.372178,26.0898536 L208.372178,26.0898536 Z" id="Fill-4"></path>
                <path d="M230.840535,19.0973961 L226.128992,19.0973961 C226.128992,17.2611225 225.074147,16.4842665 223.315571,16.4842665 C221.732553,16.4842665 220.889277,17.1197664 220.889277,18.1439203 C220.889277,19.4152214 222.014645,19.7331974 224.721531,20.4393753 C227.922079,21.2870601 231.43773,22.0991798 231.43773,26.478357 C231.43773,29.8332296 228.414241,32.093421 223.561652,32.093421 C218.604028,32.093421 215.544527,30.0451131 215.544527,25.7013503 L220.538162,25.7013503 C220.538162,27.5023602 221.627518,28.5265141 223.666686,28.5265141 C225.390751,28.5265141 226.268538,27.8555999 226.268538,26.7960316 C226.268538,25.2421689 224.933101,24.9243436 222.155691,24.1827513 C219.166713,23.4058953 215.966165,22.6995666 215.966165,18.5324236 C215.966165,15.3187565 218.920632,13.0233014 223.350082,13.0233014 C228.027114,13.0233014 230.840535,15.1068729 230.840535,19.0973961" id="Fill-5"></path>
                <path d="M234.249651,24.6065183 L234.249651,13.5882739 L239.172763,13.5882739 L239.172763,24.1120732 C239.172763,26.831446 240.367154,28.0674834 242.301288,28.0674834 C244.341956,28.0674834 245.818439,26.4429426 245.818439,23.1940118 L245.818439,13.5882739 L250.741551,13.5882739 L250.741551,31.5282978 L246.135043,31.5282978 L246.135043,29.2681064 L246.06452,29.2681064 C244.90464,30.8572328 243.110052,31.9520648 240.824804,31.9520648 C236.816992,31.9520648 234.249651,29.47999 234.249651,24.6065183" id="Fill-6"></path>
                <path d="M271.310286,20.5100534 L271.310286,31.5282978 L266.387174,31.5282978 L266.387174,21.0044985 C266.387174,18.2852764 265.191283,17.049239 263.257149,17.049239 C261.217982,17.049239 259.741498,18.6736291 259.741498,21.9225599 L259.741498,31.5282978 L254.818386,31.5282978 L254.818386,13.5882739 L259.424894,13.5882739 L259.424894,15.8484653 L259.495418,15.8484653 C260.655297,14.2591882 262.448384,13.1645069 264.733633,13.1645069 C268.742945,13.1645069 271.310286,15.6365817 271.310286,20.5100534" id="Fill-7"></path>
                <path d="M279.184865,22.5582105 C279.184865,25.9839119 280.695859,28.2086888 283.053131,28.2086888 C285.267856,28.2086888 286.780352,26.1251173 286.780352,22.5582105 C286.780352,18.9914544 285.267856,16.9078829 283.053131,16.9078829 C280.695859,16.9078829 279.184865,19.1328105 279.184865,22.5582105 Z M286.673817,31.5282978 L286.673817,29.1621647 L286.603294,29.1621647 C285.513937,30.998589 283.545292,31.9874792 281.470113,31.9874792 C276.968639,31.9874792 274.050183,28.2793669 274.050183,22.5582105 C274.050183,16.8372048 276.934128,13.1292432 281.39959,13.1292432 C283.438757,13.1292432 285.372891,14.0474554 286.463748,15.7425235 L286.53277,15.7425235 L286.53277,6.38408358 L291.455882,6.38408358 L291.455882,31.5282978 L286.673817,31.5282978 L286.673817,31.5282978 Z" id="Fill-8"></path>
                <path d="M299.331961,20.4747897 L307.137517,20.4747897 C306.820913,17.7554169 305.203384,16.5195302 303.234739,16.5195302 C301.230083,16.5195302 299.717588,17.7554169 299.331961,20.4747897 Z M306.784902,26.0898536 L311.814549,26.0898536 C311.110818,29.3740482 308.016805,32.093421 303.269251,32.093421 C297.643909,32.093421 294.372838,28.1381615 294.372838,22.4171558 C294.372838,17.1197664 297.643909,13.0233014 303.234739,13.0233014 C307.347586,13.0233014 310.372576,15.3540202 311.497945,18.9914544 C311.883571,20.2274918 312.060629,21.6048854 312.060629,23.5823644 L299.225426,23.5823644 C299.366473,27.2904767 301.15956,28.5971922 303.269251,28.5971922 C305.237895,28.5971922 306.538821,27.5377746 306.784902,26.0898536 L306.784902,26.0898536 Z" id="Fill-9"></path>
                <polyline id="Fill-10" points="177.325512 42.664992 177.325512 48.350734 188.64822 48.350734 188.64822 52.7651749 177.325512 52.7651749 177.325512 58.9099477 189.773588 58.9099477 189.773588 63.3596523 172.15632 63.3596523 172.15632 38.2154381 189.456985 38.2154381 189.456985 42.664992 177.325512 42.664992"></polyline>
                <path d="M204.047762,45.3489504 L204.047762,49.6221858 C203.486578,49.5162441 202.992917,49.4454153 202.500756,49.4454153 C199.477266,49.4454153 197.859736,51.3525177 197.859736,54.8841608 L197.859736,63.3596523 L192.936624,63.3596523 L192.936624,45.4196284 L197.472609,45.4196284 L197.472609,47.9623814 L197.543132,47.9623814 C198.739024,46.0200153 200.320542,45.1370668 202.430232,45.1370668 C202.923894,45.1370668 203.555601,45.2077449 204.047762,45.3489504" id="Fill-11"></path>
                <path d="M209.56807,54.389565 C209.56807,57.8151157 211.080565,60.0400433 213.436336,60.0400433 C215.651061,60.0400433 217.163557,57.9563211 217.163557,54.389565 C217.163557,50.8228089 215.651061,48.7392374 213.436336,48.7392374 C211.080565,48.7392374 209.56807,50.964165 209.56807,54.389565 Z M217.058522,63.3596523 L217.058522,60.9935192 L216.987999,60.9935192 C215.897142,62.8299435 213.928497,63.8188337 211.853318,63.8188337 C207.353344,63.8188337 204.434889,60.1105707 204.434889,54.389565 C204.434889,48.66871 207.317333,44.9605977 211.782795,44.9605977 C213.823463,44.9605977 215.757596,45.8786591 216.846953,47.573878 L216.917476,47.573878 L216.917476,38.2154381 L221.840588,38.2154381 L221.840588,63.3596523 L217.058522,63.3596523 L217.058522,63.3596523 Z" id="Fill-12"></path>
                <path d="M229.715166,52.3061442 L237.520722,52.3061442 C237.204119,49.5867714 235.586589,48.350734 233.617944,48.350734 C231.613288,48.350734 230.102293,49.5867714 229.715166,52.3061442 Z M237.169607,57.9212081 L242.197754,57.9212081 C241.494023,61.2054027 238.40001,63.9247755 233.653956,63.9247755 C228.027114,63.9247755 224.757543,59.9693653 224.757543,54.2483595 C224.757543,48.9511209 228.027114,44.8545052 233.617944,44.8545052 C237.732292,44.8545052 240.755782,47.1853746 241.88115,50.8228089 C242.268277,52.0588463 242.443834,53.4360892 242.443834,55.4137189 L229.610132,55.4137189 C229.749678,59.1218312 231.542765,60.428396 233.653956,60.428396 C235.622601,60.428396 236.923527,59.3689784 237.169607,57.9212081 L237.169607,57.9212081 Z" id="Fill-13"></path>
                <path d="M192.903613,77.8867842 L187.347294,77.8867842 C186.889644,75.4147093 185.237603,74.0724287 182.460194,74.0724287 C178.450881,74.0724287 175.919552,77.321661 175.919552,82.7246907 C175.919552,88.2339636 178.380358,91.5888362 182.353659,91.5888362 C185.941333,91.5888362 187.909978,89.5052647 187.980501,85.6205326 L182.037055,85.6205326 L182.037055,81.3827115 L192.797078,81.3827115 L192.797078,95.1910068 L188.43665,95.1910068 L188.43665,92.471634 L188.367628,92.471634 C186.960167,94.4492637 184.392826,95.6853012 181.052733,95.6853012 C174.653137,95.6853012 170.574802,90.7765659 170.574802,82.7246907 C170.574802,74.4963465 175.145298,69.4815187 182.460194,69.4815187 C188.613708,69.4815187 192.37544,72.7307509 192.903613,77.8867842" id="Fill-14"></path>
                <path d="M200.917737,84.137348 L208.724794,84.137348 C208.40819,81.4179752 206.79066,80.1820885 204.820515,80.1820885 C202.817359,80.1820885 201.304864,81.4179752 200.917737,84.137348 Z M208.372178,89.7524119 L213.400324,89.7524119 C212.698095,93.0367572 209.602581,95.7561299 204.856527,95.7561299 C199.229684,95.7561299 195.960114,91.8007198 195.960114,86.079714 C195.960114,80.7824754 199.229684,76.6858597 204.820515,76.6858597 C208.934862,76.6858597 211.959853,79.0167291 213.083721,82.6541634 C213.470848,83.8902008 213.646405,85.267293 213.646405,87.2449227 L200.812703,87.2449227 C200.953749,90.9531857 202.746836,92.2597505 204.856527,92.2597505 C206.825172,92.2597505 208.126097,91.2004836 208.372178,89.7524119 L208.372178,89.7524119 Z" id="Fill-15"></path>
                <path d="M230.840535,82.7601051 L226.128992,82.7601051 C226.128992,80.9236808 225.074147,80.1468248 223.315571,80.1468248 C221.732553,80.1468248 220.889277,80.7824754 220.889277,81.8066293 C220.889277,83.0779304 222.014645,83.3957557 224.721531,84.1020843 C227.922079,84.9496184 231.43773,85.7618888 231.43773,90.1409153 C231.43773,93.4959386 228.414241,95.7561299 223.561652,95.7561299 C218.604028,95.7561299 215.544527,93.7078221 215.544527,89.3640593 L220.538162,89.3640593 C220.538162,91.1650692 221.627518,92.1890724 223.666686,92.1890724 C225.390751,92.1890724 226.268538,91.5183089 226.268538,90.4587406 C226.268538,88.9048779 224.933101,88.5870526 222.155691,87.8454603 C219.166713,87.0686043 215.966165,86.3622756 215.966165,82.1951326 C215.966165,78.9814655 218.920632,76.6858597 223.350082,76.6858597 C228.027114,76.6858597 230.840535,78.7694312 230.840535,82.7601051" id="Fill-16"></path>
                <path d="M234.249651,88.2690766 L234.249651,77.2509829 L239.172763,77.2509829 L239.172763,87.7747822 C239.172763,90.494155 240.367154,91.7300417 242.301288,91.7300417 C244.341956,91.7300417 245.818439,90.1055009 245.818439,86.85657 L245.818439,77.2509829 L250.741551,77.2509829 L250.741551,95.1910068 L246.135043,95.1910068 L246.135043,92.9308154 L246.06452,92.9308154 C244.90464,94.5199418 243.110052,95.6147738 240.824804,95.6147738 C236.816992,95.6147738 234.249651,93.1426989 234.249651,88.2690766" id="Fill-17"></path>
                <path d="M271.310286,84.1726117 L271.310286,95.1910068 L266.387174,95.1910068 L266.387174,84.6672075 C266.387174,81.9478347 265.191283,80.7117973 263.257149,80.7117973 C261.217982,80.7117973 259.741498,82.3361874 259.741498,85.5852689 L259.741498,95.1910068 L254.818386,95.1910068 L254.818386,77.2509829 L259.424894,77.2509829 L259.424894,79.5111743 L259.495418,79.5111743 C260.655297,77.9218972 262.448384,76.8272159 264.733633,76.8272159 C268.742945,76.8272159 271.310286,79.2992907 271.310286,84.1726117" id="Fill-18"></path>
                <path d="M279.184865,86.2209195 C279.184865,89.6464702 280.695859,91.8713978 283.053131,91.8713978 C285.267856,91.8713978 286.780352,89.7878263 286.780352,86.2209195 C286.780352,82.6541634 285.267856,80.5704412 283.053131,80.5704412 C280.695859,80.5704412 279.184865,82.7953688 279.184865,86.2209195 Z M286.673817,95.1910068 L286.673817,92.8248737 L286.603294,92.8248737 C285.513937,94.6611473 283.545292,95.6501882 281.470113,95.6501882 C276.968639,95.6501882 274.050183,91.9417745 274.050183,86.2209195 C274.050183,80.4999138 276.934128,76.7918015 281.39959,76.7918015 C283.438757,76.7918015 285.372891,77.7100136 286.463748,79.4052325 L286.53277,79.4052325 L286.53277,70.0466419 L291.455882,70.0466419 L291.455882,95.1910068 L286.673817,95.1910068 L286.673817,95.1910068 Z" id="Fill-19"></path>
                <path d="M299.331961,84.137348 L307.137517,84.137348 C306.820913,81.4179752 305.203384,80.1820885 303.234739,80.1820885 C301.230083,80.1820885 299.717588,81.4179752 299.331961,84.137348 Z M306.784902,89.7524119 L311.814549,89.7524119 C311.110818,93.0367572 308.016805,95.7561299 303.269251,95.7561299 C297.643909,95.7561299 294.372838,91.8007198 294.372838,86.079714 C294.372838,80.7824754 297.643909,76.6858597 303.234739,76.6858597 C307.347586,76.6858597 310.372576,79.0167291 311.497945,82.6541634 C311.883571,83.8902008 312.060629,85.267293 312.060629,87.2449227 L299.225426,87.2449227 C299.366473,90.9531857 301.15956,92.2597505 303.269251,92.2597505 C305.237895,92.2597505 306.538821,91.2004836 306.784902,89.7524119 L306.784902,89.7524119 Z" id="Fill-20"></path>
                <path d="M196.032138,127.021909 L196.032138,114.521384 C196.032138,111.377642 196.102661,108.234803 196.243707,105.091664 L196.173184,105.091664 C195.364419,108.163975 194.45062,111.307114 193.500809,114.343559 L189.527508,127.021909 L183.620073,127.021909 L179.646772,114.343559 C178.696961,111.307114 177.783162,108.163975 176.974397,105.091664 L176.903874,105.091664 C177.04492,108.234803 177.115444,111.377642 177.115444,114.521384 L177.115444,127.021909 L172.15632,127.021909 L172.15632,101.877996 L180.455537,101.877996 L184.077723,113.42595 C185.026034,116.463901 185.87081,119.605986 186.538529,122.678749 L186.609052,122.678749 C187.276771,119.605986 188.121547,116.463901 189.069858,113.42595 L192.692044,101.877996 L200.989761,101.877996 L200.989761,127.021909 L196.032138,127.021909" id="Fill-21"></path>
                <path d="M209.3565,115.9681 L217.163557,115.9681 C216.846953,113.24948 215.229423,112.013443 213.259278,112.013443 C211.256122,112.013443 209.743627,113.24948 209.3565,115.9681 Z M216.810941,121.583164 L221.839088,121.583164 C221.136858,124.868413 218.041344,127.587032 213.29529,127.587032 C207.668448,127.587032 204.398877,123.632677 204.398877,117.910616 C204.398877,112.613679 207.668448,108.517214 213.259278,108.517214 C217.373625,108.517214 220.398616,110.848084 221.522484,114.485216 C221.909611,115.720952 222.085168,117.098346 222.085168,119.077031 L209.251466,119.077031 C209.392512,122.784239 211.185599,124.090804 213.29529,124.090804 C215.263935,124.090804 216.564861,123.031386 216.810941,121.583164 L216.810941,121.583164 Z" id="Fill-22"></path>
                <path d="M241.494023,116.004268 L241.494023,127.021909 L236.572412,127.021909 L236.572412,116.498562 C236.572412,113.779189 235.37652,112.543152 233.442387,112.543152 C231.403219,112.543152 229.925235,114.16724 229.925235,117.416322 L229.925235,127.021909 L225.003624,127.021909 L225.003624,109.082337 L229.610132,109.082337 L229.610132,111.342529 L229.679155,111.342529 C230.840535,109.753252 232.633622,108.65842 234.91887,108.65842 C238.928183,108.65842 241.494023,111.130645 241.494023,116.004268" id="Fill-23"></path>
                <path d="M259.531429,114.590706 L254.819887,114.590706 C254.819887,112.755035 253.765041,111.978179 252.006465,111.978179 C250.424948,111.978179 249.580171,112.613679 249.580171,113.637833 C249.580171,114.908682 250.705539,115.226658 253.412426,115.933439 C256.612974,116.78037 260.128625,117.59264 260.128625,121.971968 C260.128625,125.32654 257.105135,127.587032 252.252546,127.587032 C247.294923,127.587032 244.235421,125.539026 244.235421,121.195866 L249.229056,121.195866 C249.229056,122.996725 250.318413,124.019975 252.35758,124.019975 C254.081645,124.019975 254.959432,123.349362 254.959432,122.289944 C254.959432,120.736232 253.623995,120.418256 250.846586,119.676815 C247.857607,118.899205 244.657059,118.193932 244.657059,114.02709 C244.657059,110.812669 247.611526,108.517214 252.042477,108.517214 C256.718008,108.517214 259.531429,110.600786 259.531429,114.590706" id="Fill-24"></path>
                <path d="M279.53748,115.75712 L274.402799,115.75712 C274.227241,113.637833 272.962327,112.331268 271.062705,112.331268 C268.672422,112.331268 267.23045,114.521384 267.23045,118.052274 C267.23045,121.583164 268.672422,123.772828 271.062705,123.772828 C272.962327,123.772828 274.227241,122.326112 274.368287,119.994791 L279.53748,119.994791 C279.150353,124.550437 275.915294,127.587032 271.098717,127.587032 C265.647432,127.587032 262.097269,123.843656 262.097269,118.052274 C262.097269,112.260741 265.647432,108.517214 271.098717,108.517214 C275.915294,108.517214 279.150353,111.554412 279.53748,115.75712" id="Fill-25"></path>
                <path d="M287.307024,111.059816 C288.573439,109.435276 290.330514,108.65842 292.230136,108.65842 C296.237948,108.65842 298.805289,111.130645 298.805289,116.004268 L298.805289,127.021909 L293.882177,127.021909 L293.882177,116.498562 C293.882177,113.779189 292.686285,112.543152 290.753653,112.543152 C288.712984,112.543152 287.236501,114.13258 287.236501,117.416322 L287.236501,127.021909 L282.313389,127.021909 L282.313389,101.877996 L287.236501,101.877996 L287.236501,111.059816 L287.307024,111.059816" id="Fill-26"></path>
                <path d="M306.50431,115.9681 L314.309866,115.9681 C313.994762,113.24948 312.377233,112.013443 310.407088,112.013443 C308.403932,112.013443 306.891437,113.24948 306.50431,115.9681 Z M313.958751,121.583164 L318.986897,121.583164 C318.284667,124.868413 315.189154,127.587032 310.4431,127.587032 C304.816257,127.587032 301.546687,123.632677 301.546687,117.910616 C301.546687,112.613679 304.816257,108.517214 310.407088,108.517214 C314.521435,108.517214 317.544925,110.848084 318.670293,114.485216 C319.05742,115.720952 319.232978,117.098346 319.232978,119.077031 L306.399275,119.077031 C306.538821,122.784239 308.333409,124.090804 310.4431,124.090804 C312.411744,124.090804 313.71267,123.031386 313.958751,121.583164 L313.958751,121.583164 Z" id="Fill-27"></path>
                <path d="M338.641833,116.004268 L338.641833,127.021909 L333.718721,127.021909 L333.718721,116.498562 C333.718721,113.779189 332.522829,112.543152 330.590196,112.543152 C328.549528,112.543152 327.073045,114.16724 327.073045,117.416322 L327.073045,127.021909 L322.149933,127.021909 L322.149933,109.082337 L326.756441,109.082337 L326.756441,111.342529 L326.826964,111.342529 C327.988344,109.753252 329.781432,108.65842 332.06668,108.65842 C336.074492,108.65842 338.641833,111.130645 338.641833,116.004268" id="Fill-28"></path>
                <path d="M66.7088427,2.57590682 C59.9873919,2.57590682 53.4634057,4.2614809 47.3181436,7.58561082 C41.3562414,10.8107312 35.9963364,15.4347951 31.3874273,21.3294066 C26.7606623,27.2470752 23.1261723,34.1432358 20.5850903,41.8266506 C17.9494773,49.7965452 16.6129897,58.2654058 16.6129897,66.9979907 C16.6129897,75.7305755 17.9494773,84.1994362 20.5850903,92.1693308 C23.1261723,99.8528963 26.7606623,106.749057 31.3874273,112.666575 C35.9963364,118.561638 41.3562414,123.185099 47.3181436,126.410069 C53.4634057,129.7345 59.9873919,131.420828 66.7088427,131.420828 C73.4302935,131.420828 79.9541297,129.7345 86.0993918,126.410069 C92.061294,123.185099 97.4210489,118.561638 102.030108,112.666575 C106.657023,106.749057 110.291363,99.8528963 112.832295,92.1693308 C115.468058,84.1994362 116.804696,75.7305755 116.804696,66.9979907 C116.804696,58.2654058 115.468058,49.7965452 112.832295,41.8266506 C110.291363,34.1432358 106.657023,27.2470752 102.030108,21.3294066 C97.4210489,15.4347951 92.061294,10.8107312 86.0993918,7.58561082 C79.9541297,4.2614809 73.4302935,2.57590682 66.7088427,2.57590682 Z M66.7088427,133.996283 C59.5581013,133.996283 52.6250812,132.207479 46.1019953,128.678097 C39.8276909,125.284344 34.1984477,120.431819 29.3703168,114.25766 C24.5603419,108.105654 20.7855559,100.947276 18.1511433,92.9812998 C15.4286519,84.7490373 14.0481999,76.0071091 14.0481999,66.9979907 C14.0481999,57.9890229 15.4286519,49.246944 18.1511433,41.0146816 C20.7855559,33.0487052 24.5603419,25.8903275 29.3703168,19.7384719 C34.1984477,13.5637099 39.8276909,8.711939 46.1019953,5.31788451 C52.6250812,1.78925535 59.5581013,2.33174024e-13 66.7088427,2.33174024e-13 C73.859284,2.33174024e-13 80.7924542,1.78925535 87.31554,5.31788451 C93.5898445,8.711939 99.2192377,13.5637099 104.047219,19.7384719 C108.857344,25.8903275 112.631979,33.0487052 115.266392,41.0146816 C117.988583,49.246944 119.369035,57.9890229 119.369035,66.9979907 C119.369035,76.0071091 117.988583,84.7490373 115.266392,92.9812998 C112.631979,100.947276 108.857344,108.105654 104.047219,114.25766 C99.2192377,120.431819 93.5898445,125.284344 87.31554,128.678097 C80.7924542,132.207479 73.859284,133.996283 66.7088427,133.996283 L66.7088427,133.996283 Z" id="Fill-29"></path>
                <path d="M66.7088427,2.57590682 C63.6930052,2.57590682 60.7215823,4.17121189 57.8768008,7.31751638 C54.9916561,10.5085786 52.3877035,15.1104897 50.1371166,20.9957579 C45.4458305,33.2629999 42.8622846,49.6003344 42.8622846,66.9979907 C42.8622846,84.3957977 45.4458305,100.732981 50.1371166,113.000374 C52.3877035,118.885642 54.9916561,123.488006 57.8768008,126.678314 C60.7215823,129.82492 63.6930052,131.420828 66.7088427,131.420828 C69.7245302,131.420828 72.6959531,129.82492 75.5407346,126.678314 C78.4258793,123.488006 81.0298319,118.885642 83.2804188,113.000374 C87.9717049,100.732981 90.5552508,84.3957977 90.5552508,66.9979907 C90.5552508,49.6003344 87.9717049,33.2629999 83.2804188,20.9957579 C81.0298319,15.1104897 78.4258793,10.5085786 75.5407346,7.31751638 C72.6959531,4.17121189 69.7245302,2.57590682 66.7088427,2.57590682 Z M66.7088427,133.996283 C59.4284589,133.996283 52.6927534,126.868196 47.7427826,113.923107 C42.9416605,101.369084 40.2974948,84.7038275 40.2974948,66.9979907 C40.2974948,49.2923046 42.9416605,32.6270479 47.7427826,20.0722713 C52.6927534,7.12853919 59.4284589,2.33174024e-13 66.7088427,2.33174024e-13 C73.9890765,2.33174024e-13 80.724632,7.12853919 85.6747528,20.0722713 C90.4758748,32.6270479 93.1200406,49.2923046 93.1200406,66.9979907 C93.1200406,84.7038275 90.4758748,101.369084 85.6747528,113.923107 C80.724632,126.868196 73.9890765,133.996283 66.7088427,133.996283 L66.7088427,133.996283 Z" id="Fill-30"></path>
                <path d="M21.3519914,112.55129 C15.4607624,106.634525 10.8354979,99.7448447 7.60494011,92.0734859 C4.26049503,84.1322242 2.56463975,75.6956132 2.56463975,66.9979907 C2.56463975,58.3005188 4.26049503,49.8639078 7.60494011,41.9223448 C10.8354979,34.2512873 15.4607624,27.3614562 21.3519914,21.4446918 C21.4999398,21.2962528 21.6487885,21.1490193 21.7979374,21.002238 C21.0946571,20.4939285 20.4024805,19.9737138 19.7235081,19.4396347 C19.661988,19.5009694 19.5998677,19.5617013 19.5384976,19.6233374 C13.4124417,25.7757959 8.60276684,32.9408043 5.24271664,40.9189874 C1.76382754,49.1795813 -2.78117556e-13,57.9539099 -2.78117556e-13,66.9979907 C-2.78117556e-13,76.0422221 1.76382754,84.8164 5.24271664,93.0771447 C8.60276684,101.055328 13.4124417,108.220185 19.5384976,114.372192 C19.5998677,114.433979 19.661988,114.494258 19.7235081,114.556045 C20.4024805,114.022569 21.0946571,113.502204 21.7979374,112.993894 C21.6487885,112.846962 21.4999398,112.699879 21.3519914,112.55129" id="Fill-31"></path>
                <path d="M128.175419,93.0771447 C131.653558,84.8164 133.418136,76.0422221 133.418136,66.9979907 C133.418136,57.9539099 131.653558,49.1795813 128.175419,40.9189874 C124.814318,32.9408043 120.005244,25.7757959 113.879038,19.6233374 C113.817668,19.5617013 113.755697,19.5009694 113.694027,19.4396347 C113.015055,19.9737138 112.322878,20.4939285 111.619598,21.002238 C111.768747,21.1490193 111.917596,21.2962528 112.065544,21.4446918 C117.957073,27.3614562 122.581587,34.2512873 125.812145,41.9223448 C129.15674,49.8639078 130.852295,58.3005188 130.852295,66.9979907 C130.852295,75.6956132 129.15674,84.1322242 125.812145,92.0734859 C122.581587,99.7448447 117.957073,106.634525 112.065544,112.55129 C111.917746,112.699879 111.768747,112.846962 111.619598,112.993894 C112.322878,113.502204 113.015055,114.022569 113.694027,114.556045 C113.755697,114.494258 113.817668,114.433979 113.879038,114.372192 C120.005244,108.220185 124.814318,101.055328 128.175419,93.0771447" id="Fill-32"></path>
                <path d="M23.7002603,19.2010774 C22.9870767,18.6942749 22.2875477,18.1730053 21.6001726,17.6392276 C20.9647146,18.2260515 20.3390097,18.826137 19.7235081,19.4396347 C20.4024805,19.9737138 21.0946571,20.4939285 21.7979374,21.002238 C22.4213915,20.3876854 23.0554991,19.7872985 23.7002603,19.2010774" id="Fill-33"></path>
                <path d="M109.717425,19.2010774 C110.362036,19.7872985 110.996144,20.3876854 111.619598,21.002238 C112.322878,20.4939285 113.015055,19.9737138 113.694027,19.4396347 C113.078526,18.826137 112.452821,18.2260515 111.817363,17.6392276 C111.130138,18.1730053 110.430459,18.6942749 109.717425,19.2010774" id="Fill-34"></path>
                <path d="M92.675295,5.26559178 C84.4502018,1.77162351 75.7138913,-3.83765582e-13 66.7088427,-3.83765582e-13 C57.7036441,-3.83765582e-13 48.9673336,1.77162351 40.7422404,5.26559178 C35.3374707,7.5614989 30.3096244,10.5343482 25.7170706,14.1365188 C26.4796203,14.6350328 27.2565747,15.1174219 28.045383,15.5865495 C32.256812,12.3831299 36.838112,9.72087226 41.7414175,7.63790355 C49.6485566,4.27896205 58.0487571,2.57590682 66.7088427,2.57590682 C75.3687783,2.57590682 83.7689788,4.27896205 91.6761178,7.63790355 C96.5794234,9.72087226 101.160723,12.3831299 105.372152,15.5865495 C106.160961,15.1174219 106.938065,14.6350328 107.700465,14.1365188 C103.108061,10.5343482 98.0800647,7.5614989 92.675295,5.26559178" id="Fill-35"></path>
                <path d="M109.784347,15.8383684 C109.042054,16.3371838 108.287457,16.8225869 107.520406,17.293975 C108.2651,17.9122951 108.99839,18.5471922 109.717425,19.2010774 C110.430459,18.6942749 111.130138,18.1730053 111.817363,17.6392276 C111.150845,17.0237708 110.472472,16.4242881 109.784347,15.8383684" id="Fill-36"></path>
                <path d="M21.6001726,17.6392276 C22.2875477,18.1730053 22.9870767,18.6942749 23.7002603,19.2010774 C24.4192957,18.5471922 25.1524358,17.9122951 25.8971296,17.293975 C25.1302285,16.8225869 24.3756314,16.3371838 23.6331883,15.8383684 C22.945063,16.4242881 22.2668409,17.0237708 21.6001726,17.6392276" id="Fill-37"></path>
                <path d="M109.717425,114.795657 C108.99839,115.448186 108.2651,116.084138 107.520556,116.702006 C108.287457,117.173696 109.042054,117.658948 109.784497,118.157764 C110.472472,117.571543 111.150845,116.971758 111.817363,116.356904 C111.130138,115.823428 110.430459,115.302008 109.717425,114.795657" id="Fill-38"></path>
                <path d="M91.6761178,126.358831 C83.7689788,129.716417 75.3687783,131.420828 66.7088427,131.420828 C58.0487571,131.420828 49.6485566,129.716417 41.7414175,126.358831 C36.838112,124.274657 32.256812,121.613304 28.045383,118.409432 C27.2565747,118.878107 26.4796203,119.360346 25.7170706,119.859161 C30.3096244,123.46088 35.3374707,126.434181 40.7422404,128.730842 C48.9673336,132.224056 57.7036441,133.996283 66.7088427,133.996283 C75.7138913,133.996283 84.4502018,132.224056 92.675295,128.730842 C98.0800647,126.434181 103.108061,123.46088 107.700465,119.859161 C106.938065,119.360346 106.160961,118.878107 105.372152,118.409432 C101.160723,121.613304 96.5794234,124.274657 91.6761178,126.358831" id="Fill-39"></path>
                <path d="M23.7002603,114.795657 C22.9870767,115.302008 22.2875477,115.823428 21.6001726,116.356904 C22.2668409,116.971758 22.945063,117.571543 23.6330383,118.157764 C24.3754814,117.658948 25.1300784,117.173696 25.8969795,116.702006 C25.1524358,116.084138 24.4192957,115.448186 23.7002603,114.795657" id="Fill-40"></path>
                <path d="M107.700465,14.1365188 C106.938065,14.6350328 106.160961,15.1174219 105.372152,15.5865495 C101.188332,18.0741464 96.6397431,20.1453606 91.771399,21.7692985 C83.8360507,24.4163355 75.4037397,25.7586161 66.7088427,25.7586161 C58.0137957,25.7586161 49.5816347,24.4163355 41.6461363,21.7692985 C36.7779423,20.1453606 32.2292029,18.0741464 28.045383,15.5865495 C27.2565747,15.1174219 26.4796203,14.6350328 25.7170706,14.1365188 C25.0122899,14.6892846 24.3172623,15.2559148 23.6331883,15.8383684 C24.3756314,16.3371838 25.1302285,16.8225869 25.8971296,17.293975 C30.4682263,20.1031647 35.4672632,22.4222795 40.8376716,24.2137954 C49.0344055,26.9480874 57.7386056,28.3345229 66.7088427,28.3345229 C75.6789298,28.3345229 84.3832799,26.9480874 92.5800138,24.2137954 C97.9502722,22.4222795 102.949459,20.1031647 107.520406,17.293975 C108.287457,16.8225869 109.042054,16.3371838 109.784347,15.8383684 C109.100423,15.2559148 108.405246,14.6892846 107.700465,14.1365188" id="Fill-41"></path>
                <path d="M107.520556,116.702006 C102.949459,113.892967 97.9502722,111.573702 92.5800138,109.782186 C84.3832799,107.047894 75.6789298,105.661609 66.7088427,105.661609 C57.7386056,105.661609 49.0344055,107.047894 40.8376716,109.782186 C35.4672632,111.573702 30.4682263,113.892967 25.8969795,116.702006 C25.1300784,117.173696 24.3754814,117.658948 23.6330383,118.157764 C24.3171122,118.739464 25.0122899,119.306094 25.7170706,119.859161 C26.4796203,119.360346 27.2565747,118.878107 28.045383,118.409432 C32.2292029,115.921383 36.7779423,113.850771 41.6461363,112.226834 C49.5816347,109.579646 58.0137957,108.237365 66.7088427,108.237365 C75.4037397,108.237365 83.8360507,109.579646 91.771399,112.226834 C96.6397431,113.850771 101.188332,115.921383 105.372152,118.409432 C106.160961,118.878107 106.938065,119.360346 107.700465,119.859161 C108.405246,119.306094 109.100423,118.739464 109.784497,118.157764 C109.042054,117.658948 108.287457,117.173696 107.520556,116.702006" id="Fill-42"></path>
                <path d="M109.717425,114.795657 C110.430459,115.302008 111.130138,115.823428 111.817363,116.356904 C112.452821,115.769176 113.078526,115.169392 113.694027,114.556045 C113.015055,114.022569 112.322878,113.502204 111.619748,112.993894 C110.996144,113.608296 110.362036,114.209436 109.717425,114.795657" id="Fill-43"></path>
                <path d="M23.7002603,114.795657 C23.0554991,114.209436 22.4213915,113.608296 21.7979374,112.993894 C21.0946571,113.502204 20.4024805,114.022569 19.7235081,114.556045 C20.3390097,115.169392 20.9647146,115.769176 21.6001726,116.356904 C22.2875477,115.823428 22.9870767,115.302008 23.7002603,114.795657" id="Fill-44"></path>
                <path d="M73.4434979,96.8105745 C73.1726592,96.8105745 72.8998699,96.7670223 72.631582,96.678411 C70.2175916,95.8830189 69.2052101,92.661214 66.4452064,57.4043088 C66.401242,56.8431038 66.3569775,56.2760215 66.3122629,55.7071309 C63.4830865,79.0845439 62.6591667,81.9184483 60.7656967,82.8071234 C60.0513128,83.1424298 59.2285934,83.0841091 58.5652262,82.6513001 C56.9759058,81.6135832 55.9797296,78.8958681 54.0853594,72.9417303 C53.6271093,71.5017964 53.0182099,69.5879125 52.5003904,68.2302606 C52.3699977,68.4150182 52.2441065,68.5963097 52.1323199,68.7569554 C50.590265,70.9763072 48.4786235,74.0157657 45.3043342,74.1185428 C41.7558223,74.2332251 3.13722723,74.1244201 1.62278135,74.1195977 L1.63538548,70.0128852 C2.00555669,70.0139401 41.6955025,70.1262112 45.172441,70.0139401 C46.2981096,69.9774708 47.7910984,67.8287971 48.7790219,66.4067965 C49.973563,64.687315 50.9173721,63.3295124 52.4018081,63.0311273 C54.6385905,62.5800837 55.6790312,65.1665395 56.1788448,66.4084542 C56.7547334,67.8399489 57.3499783,69.7110341 57.9803347,71.6918285 C58.3665612,72.9060145 58.8764281,74.5087038 59.3849446,75.9382394 C60.4235847,70.446297 61.6418336,60.3063294 62.4511986,53.5684033 C63.8038915,42.3090397 64.2078238,39.3401086 64.7654064,38.3139956 C65.2233563,37.4709825 66.1452582,37.0375707 67.0598076,37.2327265 C68.6110156,37.5659232 68.8407408,39.1399796 69.0253012,40.4044992 C69.1571944,41.3096005 69.3030421,42.6065206 69.4709471,44.3698556 C69.7822991,47.6379253 70.1415167,52.2256707 70.5217412,57.0824146 C71.1079831,64.5738383 71.7728508,73.0645504 72.5107925,80.0821747 C72.9297296,84.065615 73.3020015,86.8591319 73.6159043,88.8164173 C74.1782885,85.7242139 74.6953578,81.6612042 75.0644786,78.7603893 C76.2441649,69.4898072 76.8602666,65.5648383 78.226614,64.0620627 C79.1846777,63.0080703 80.1638984,62.8468218 80.8167621,62.8976076 C82.4023313,63.0205784 83.2547604,64.3104155 84.1571559,65.6760545 C85.3877088,67.5380977 86.7825655,69.6484938 89.8372657,69.8430468 C96.8984278,70.293337 132.417308,69.8436496 132.78943,69.8392793 L132.838946,73.9455397 C131.315947,73.9643772 96.7924931,74.4011044 89.5782809,73.9417723 C84.6115047,73.6250019 82.2582841,70.2250701 80.8457216,68.0916171 C80.2261687,70.591722 79.579607,75.6722548 79.1206067,79.2809054 C77.6739831,90.6492248 76.9303396,95.0699951 74.8416557,96.3949452 C74.4074135,96.6704239 73.9286067,96.8105745 73.4434979,96.8105745" id="Fill-45"></path>
            </g>
        </g>
    </g>
</svg>